<?xml version="1.0" encoding="iso-8859-1"?>
<!-- Uploaded to: SVG Repo, www.svgrepo.com, Generator: SVG Repo Mixer Tools -->
<svg height="800px" width="800px" version="1.1" id="Capa_1" xmlns="http://www.w3.org/2000/svg" xmlns:xlink="http://www.w3.org/1999/xlink" 
	 viewBox="0 0 125.26 125.26" xml:space="preserve">
<g>
	<g>
		<path style="fill:#010002;" d="M60.547,54.055c-0.39-0.054-0.719-0.089-1.056-0.125c0.047,0.165,0.089,0.311,0.136,0.455
			c0.279,0.136,0.562,0.272,0.963,0.458C60.572,54.484,60.565,54.266,60.547,54.055z"/>
		<polygon style="fill:#010002;" points="59.62,54.377 59.627,54.384 59.627,54.381 		"/>
		<path style="fill:#010002;" d="M62.63,0C28.044,0,0,28.04,0,62.63s28.044,62.63,62.63,62.63c34.59,0,62.63-28.04,62.63-62.63
			S97.219,0,62.63,0z M81.612,40.412c0.845,0.619,1.449,1.553,1.367,2.741c-0.111,1.571-1.299,2.713-3.024,2.906
			c-0.34,0.039-0.669,0.183-1.006,0.211c-0.229,0.011-0.465-0.097-0.773-0.172c0.848-0.991-0.447-1.675,0.039-2.448
			c0.1-0.283,0.236-0.555,0.293-0.848c0.082-0.429-0.011-0.952,0.2-1.306c0.215-0.372,0.659-0.701,1.07-0.845
			C80.377,40.441,81.247,40.14,81.612,40.412z M78.137,35.477c1.045-0.462,1.385-0.157,1.55,1.092
			c0.075,0.523-0.251,1.088-0.39,1.614c0.086,0.054,0.408,0.222,0.39,0.261c-0.247,0.744-0.834,1.099-1.489,1.285
			c-0.429-0.426-0.798-0.816-1.177-1.181c-0.82-0.784-0.859-1.177-0.05-2.222C77.257,35.964,77.704,35.67,78.137,35.477z
			 M70.482,33.924c0.093-0.265,0.179-0.58,0.14-0.852c-0.118-0.676,0.1-1.439,0.87-2.613c0.043,0.301,0.086,0.562,0.147,0.902
			c0.208-0.086,0.333-0.111,0.429-0.183c0.837-0.598,1.643-1.274,2.53-1.75c0.293-0.154,0.977,0.093,1.263,0.379
			c0.802,0.787,1.084,1.804,0.673,2.87c-0.476,1.278-1.446,1.958-2.834,1.961c-0.644,0.011-1.324-0.143-1.657,0.44
			c-0.515-0.093-0.891-0.154-1.256-0.251C70.292,34.675,70.332,34.332,70.482,33.924z M60.468,30.42
			c0.286-1.578,1.067-2.927,2.491-3.801c0.494-0.297,0.981-0.601,1.478-0.895c1.174-0.709,2.054-0.523,3.089,0.34
			c0.802,0.669,1.331,1.449,1.578,2.387c0.172,0.591,0.165,1.31-0.014,1.893c-0.222,0.748-0.63,1.471-1.081,2.104
			c-0.39,0.569-0.963,0.902-1.764,0.791c-1.045-0.14-2.119-0.132-3.182-0.186c-0.018,0.064-0.047,0.125-0.064,0.186
			c0.494,0.186,1.002,0.365,1.6,0.576c-0.136,0.157-0.208,0.247-0.293,0.344c0.204,0.132,0.444,0.236,0.612,0.408
			c0.422,0.455,0.293,0.898-0.265,1.124c-0.336,0.136-0.709,0.293-0.931,0.551c-0.873,1.013-1.897,0.412-2.906,0.469
			c0.283-0.372,0.505-0.637,0.712-0.913c-0.179-0.193-0.322-0.333-0.433-0.49c-0.15-0.24-0.44-0.598-0.369-0.705
			c0.147-0.225,0.483-0.344,0.762-0.462c0.243-0.125,0.523-0.2,0.791-0.286c-0.004-0.064-0.025-0.136-0.032-0.2
			c0.487,0.136,0.977,0.258,1.457,0.394c0.021-0.057,0.054-0.107,0.072-0.157c-0.523-0.258-1.034-0.569-1.578-0.752
			C60.815,32.661,60.211,31.877,60.468,30.42z M79.561,58.507c-0.029,0.204-0.225,0.49-0.404,0.54
			c-0.154,0.039-0.397-0.186-0.576-0.315c-0.154-0.111-0.272-0.265-0.562-0.569c-0.165,0.744-0.297,1.331-0.437,1.958
			c-0.243-0.064-0.465-0.115-0.687-0.175c-0.115,0.719-0.218,1.371-0.333,2.097c-0.208-0.004-0.515-0.011-0.984-0.021
			c0.333,0.261,0.555,0.437,0.83,0.662c-0.211,0-0.358-0.007-0.523,0c0.208,0.161,0.39,0.311,0.637,0.508
			c-0.193,0.004-0.322,0.004-0.53,0.007c0.14,0.132,0.222,0.222,0.351,0.347c-0.404-0.061-0.769-0.097-1.281-0.168
			c0.279,0.193,0.444,0.315,0.623,0.429c-0.014,0.029-0.025,0.061-0.039,0.079c-0.551-0.193-1.109-0.394-1.65-0.598
			c-0.018,0.025-0.029,0.054-0.043,0.075c0.537,0.297,1.059,0.583,1.61,0.895c-0.319,0.047-0.608,0.089-1.088,0.161
			c0.336,0.14,0.494,0.208,0.823,0.347c-0.451,0.043-0.716,0.064-0.956,0.075c-0.018,0.336-0.025,0.626-0.043,1.002
			c-0.089,0.032-0.254,0.086-0.501,0.157c0.129,0.122,0.243,0.233,0.258,0.254c-0.573,0.379-1.117,0.734-1.682,1.106
			c0.075,0.075,0.147,0.15,0.247,0.258c-0.247,0.014-0.487,0.021-0.82,0.032c0.215,0.172,0.333,0.261,0.565,0.44
			c-0.734-0.107-1.235-0.004-1.181,0.795c0.143,0.047,0.34,0.115,0.637,0.225c-0.426,0.44-0.823,0.795-1.163,1.195
			c-1.167,1.378-2.312,2.759-3.457,4.137c-0.709,0.841-1.428,1.671-2.101,2.537c-1.059,1.364-2.147,2.706-3.11,4.137
			c-0.583,0.863-0.973,1.861-1.417,2.813c-0.279,0.587-0.455,1.242-0.759,1.804c-0.129,0.225-0.505,0.319-0.762,0.472
			c-0.154,0.086-0.308,0.161-0.565,0.297c0.243,0.179,0.401,0.268,0.526,0.383c0.365,0.333,0.272,0.841-0.197,1.034
			c-0.222,0.075-0.476,0.097-0.698,0.179c-0.956,0.333-0.956,0.34-0.673,1.202c-0.494,0.186-0.981,0.358-1.521,0.544
			c0.222,0.165,0.397,0.283,0.576,0.415c-0.258,0.369-1.027,0.651-0.161,1.124c-0.727,0,0.215,0.472-0.168,0.598
			c-0.286,0.086-0.558,0.229-0.923,0.387c0.336,0.072,0.616,0.125,0.923,0.19c-0.372,0.816-0.369,0.798-1.238,0.519
			c-0.208-0.068-0.476,0.115-0.719,0.132c-0.265,0.036-0.537,0.011-1.02,0.011c0.795,0.286,1.385,0.508,2.172,0.795
			c-0.551,0.429-0.956,0.741-1.303,1.009c0.369,0.276,0.927,0.705,1.557,1.188c0.064-0.05,0.293-0.225,0.537-0.422
			c-0.161,0.863-0.551,1.034-1.202,0.58c-0.225-0.161-0.523-0.211-0.784-0.301c-0.064,0.526-0.1,0.959-0.172,1.614
			c0.279-0.336,0.465-0.555,0.741-0.895c0.007,0.444,0.011,0.795,0.025,1.242c-0.415-0.097-0.712-0.183-1.095-0.279
			c0.319,1.467-0.988,1.575-1.714,1.882c-0.998,0.415-2.18,0.558-3.267,0.523c-0.684-0.039-1.328-0.827-2.029-0.909
			c-1.138-0.118-1.517-1.199-2.426-1.614c-0.523-0.229-0.773-1.134-1.081-1.768c-0.186-0.372-0.018-0.927-0.616-1.117
			c-0.122-0.036-0.276-0.404-0.222-0.487c0.598-0.82-0.236-1.421-0.268-2.137c-0.029-0.551,0.029-1.109,0.047-1.664
			c0-0.247,0-0.497,0.072-0.694c0.655-1.872,1.353-3.736,2.72-5.408c0.186-0.011,0.601-0.025,1.02-0.057
			c-0.029,0.351-0.054,0.605-0.075,0.959c0.701-0.419,1.299-0.769,1.886-1.113c0.204,0.075,0.483,0.254,0.798,0.311
			c0.261,0.047,0.548-0.032,0.923-0.057c0.007-0.258,0.025-0.673,0.036-1.084c0.329,0.025,0.673-0.007,0.977,0.093
			c0.183,0.064,0.29,0.319,0.415,0.501c0.268,0.365,0.515,0.673,0.984,0.211c0.115-0.118,0.444-0.029,0.591-0.14
			c0.147-0.104,0.272-0.501,0.247-0.523c-0.88-0.526-0.072-1.181-0.115-1.761c-0.014-0.172,0.204-0.365,0.372-0.637
			c0.594,0.619,1.156,1.199,1.897,1.972c0.122-0.626,0.107-1.031,0.276-1.335c0.215-0.358,0.544-0.809,0.905-0.884
			c0.608-0.15,1.278-0.115,1.911-0.025c0.465,0.075,0.905,0.383,1.374,0.519c0.2,0.043,0.444-0.1,0.673-0.157
			c-0.136-0.258-0.222-0.583-0.437-0.777c-0.154-0.143-0.451-0.125-0.931-0.251c0.465-0.132,0.723-0.208,0.984-0.293
			c0.211-0.075,0.408-0.154,0.623-0.229c-0.122-0.157-0.24-0.326-0.361-0.48c-0.054-0.057-0.136-0.093-0.215-0.157
			c0.15-0.301,0.293-0.598,0.444-0.905c0.755,0.651,1.378,0.472,1.743-0.501c-0.236-0.1-0.462-0.211-0.684-0.308
			c0-0.086,0-0.183,0-0.272c0.361-0.039,0.712-0.064,0.97-0.086c0.372-0.755,0.784-1.56,1.245-2.473
			c-0.24-0.437-0.064-0.923,0.605-1.296c-0.251-0.161-0.526-0.329-0.905-0.551c0.372-0.233,0.612-0.387,0.916-0.583
			c-0.125-0.136-0.225-0.233-0.372-0.387c0.183-0.122,0.354-0.329,0.523-0.329c0.848,0.004,0.97-0.562,1.024-1.202
			c0.004-0.129-0.014-0.372,0.021-0.387c1.113-0.315,0.533-1.342,0.82-1.99c0.154-0.354,0.043-0.812,0.05-1.324
			c0.866-0.304,0.573-1.22,0.494-1.893c-0.107-0.938-0.523-1.843-0.727-2.788c-0.107-0.512-0.039-1.07-0.093-1.603
			c-0.029-0.243-0.186-0.48-0.236-0.73c-0.068-0.344-0.093-0.684-0.129-1.027c0.361,0.064,0.719,0.111,1.077,0.186
			c0.122,0.039,0.225,0.129,0.283,0.161c-0.032-0.594-0.029-1.206-0.14-1.786c-0.036-0.211-0.361-0.412-0.601-0.515
			c-0.429-0.197-0.601-0.408-0.598-0.938c0.007-0.276-0.426-0.565-0.752-0.741c-0.036-0.215-0.075-0.429-0.107-0.644
			c0.537-0.032,1.117-0.057,1.75-0.089c-0.039-0.959-0.82-0.737-1.109-0.58c-0.966,0.512-1.593-0.014-2.287-0.512
			c-0.036-0.021-0.1,0-0.215-0.004c-0.082,0.329-0.172,0.669-0.265,1.081c-0.548,0.236-1.253,0.44-1.521,1.414
			c-0.419-0.322-0.827-0.648-1.249-0.973c0,0.004,0.004,0.025,0.007,0.029c-0.558-0.526-1.464-0.837-1.095-1.915
			c0.057-0.172-0.061-0.433-0.161-0.633c-0.175-0.351-0.365-0.712-0.601-1.013c-0.372-0.465-0.261-0.913-0.29-1.432
			c-0.054-0.812,0.082-1.861-0.845-2.505c0.208-0.172,0.408-0.34,0.605-0.515c-0.218-0.905,0.125-2.494,0.519-3.736
			c0.422-1.349,0.701-2.731,1.908-3.618c-0.079-0.336-0.154-0.662-0.233-0.977c0.497,0.412,0.827,0.358,1.374,0.082
			c0.902-0.458,1.875-0.025,2.638,0.412c0.895,0.519,1.893,1.009,2.423,2.09c0.222,0.451,0.97,0.583,1.582,0.387
			c0.379-0.125,0.841-0.422,0.952,0.304c0.508-0.107,0.598,0.397,0.884,0.551c0.268,0.14,0.741-0.107,1.124-0.179
			c0.408-0.061,0.82-0.107,0.931,0.458c0.097,0.598,0.372,1.009,1.113,0.916c-0.49,0.587-0.347,0.812,0.87,1.342
			c-0.254,0.218-0.465,0.387-0.684,0.576c0.251,0.097,0.487,0.236,0.741,0.304c0.225,0.061,0.476,0.043,0.716,0.05
			c-0.043,0.075-0.093,0.136-0.132,0.208c0.397,0.286,0.769,0.612,1.206,0.859c0.884,0.512,1.306,1.374,1.321,2.269
			c0.021,0.973,0.512,1.625,1.045,2.258c0.759,0.866,1.6,1.657,2.369,2.509c0.129,0.14,0.183,0.404,0.154,0.612
			C79.919,55.551,79.758,57.033,79.561,58.507z M63.879,56.761c-0.311,0.48-0.644,0.515-1.213-0.036
			c-0.365-0.344-0.644-0.773-0.977-1.199c0.53-0.111,1.338,0.308,1.435-0.723c0.229,0.111,0.369,0.186,0.533,0.254
			c0.107-0.193,0.225-0.39,0.344-0.576c0.14,0.433,0.265,0.82,0.401,1.242c-0.336,0.021-0.648,0.032-1.206,0.061
			C63.482,56.192,63.675,56.467,63.879,56.761z M82.943,50.587c-0.186,0.319-0.523,0.941-0.934,1.521
			c-0.437,0.633-0.873,0.673-1.406,0.143c-0.601-0.594-1.253-1.167-1.686-1.868c-0.243-0.408-0.197-1.081-0.111-1.61
			c0.211-1.446,1.496-2.212,2.913-1.804C82.968,47.327,83.591,48.866,82.943,50.587z"/>
	</g>
</g>
</svg>